<svg width="570" height="581" viewBox="0 0 570 581" fill="none" xmlns="http://www.w3.org/2000/svg">
<g filter="url(#filter0_d_1511_6)">
<rect x="60" y="81" width="450" height="430" rx="20" fill="white"/>
</g>
<g filter="url(#filter1_d_1511_6)">
<circle cx="285" cy="74" r="50" fill="#F48C06"/>
</g>
<path d="M273 50C272.053 50 271.286 50.7675 271.286 51.7143V55.1429H274.714V51.7143C274.714 50.7675 273.947 50 273 50Z" fill="#F5F5FC"/>
<path d="M297 50C296.053 50 295.286 50.7675 295.286 51.7143V55.1429H298.714V51.7143C298.714 50.7675 297.947 50 297 50Z" fill="#F5F5FC"/>
<path d="M303.857 55.1428H298.714V62C298.714 62.9468 297.947 63.7143 297 63.7143C296.053 63.7143 295.286 62.9468 295.286 62V55.1428H274.714V62C274.714 62.9468 273.947 63.7143 273 63.7143C272.053 63.7143 271.286 62.9468 271.286 62V55.1428H266.143C263.303 55.1428 261 57.4454 261 60.2857V92.8571C261 95.6974 263.303 98 266.143 98H303.857C306.697 98 309 95.6974 309 92.8571V60.2857C309 57.4454 306.697 55.1428 303.857 55.1428ZM305.571 92.8571C305.571 93.8039 304.804 94.5714 303.857 94.5714H266.143C265.196 94.5714 264.429 93.8039 264.429 92.8571V70.5714H305.571V92.8571Z" fill="#F5F5FC"/>
<path d="M274.714 73.9999H271.286C270.339 73.9999 269.571 74.7674 269.571 75.7142C269.571 76.661 270.339 77.4285 271.286 77.4285H274.714C275.661 77.4285 276.429 76.661 276.429 75.7142C276.429 74.7674 275.661 73.9999 274.714 73.9999Z" fill="#F5F5FC"/>
<path d="M286.714 73.9999H283.286C282.339 73.9999 281.571 74.7674 281.571 75.7142C281.571 76.661 282.339 77.4285 283.286 77.4285H286.714C287.661 77.4285 288.429 76.661 288.429 75.7142C288.429 74.7674 287.661 73.9999 286.714 73.9999Z" fill="#F5F5FC"/>
<path d="M298.714 73.9999H295.286C294.339 73.9999 293.571 74.7674 293.571 75.7142C293.571 76.661 294.339 77.4285 295.286 77.4285H298.714C299.661 77.4285 300.429 76.661 300.429 75.7142C300.429 74.7674 299.661 73.9999 298.714 73.9999Z" fill="#F5F5FC"/>
<path d="M274.714 80.8571H271.286C270.339 80.8571 269.571 81.6246 269.571 82.5714C269.571 83.5182 270.339 84.2857 271.286 84.2857H274.714C275.661 84.2857 276.429 83.5182 276.429 82.5714C276.429 81.6246 275.661 80.8571 274.714 80.8571Z" fill="#F5F5FC"/>
<path d="M286.714 80.8571H283.286C282.339 80.8571 281.571 81.6246 281.571 82.5714C281.571 83.5182 282.339 84.2857 283.286 84.2857H286.714C287.661 84.2857 288.429 83.5182 288.429 82.5714C288.429 81.6246 287.661 80.8571 286.714 80.8571Z" fill="#F5F5FC"/>
<path d="M298.714 80.8571H295.286C294.339 80.8571 293.571 81.6246 293.571 82.5714C293.571 83.5182 294.339 84.2857 295.286 84.2857H298.714C299.661 84.2857 300.429 83.5182 300.429 82.5714C300.428 81.6246 299.661 80.8571 298.714 80.8571Z" fill="#F5F5FC"/>
<path d="M274.714 87.7142H271.286C270.339 87.7142 269.571 88.4817 269.571 89.4286C269.571 90.3754 270.339 91.1428 271.286 91.1428H274.714C275.661 91.1428 276.429 90.3753 276.429 89.4284C276.429 88.4816 275.661 87.7142 274.714 87.7142Z" fill="#F5F5FC"/>
<path d="M286.714 87.7142H283.286C282.339 87.7142 281.571 88.4817 281.571 89.4285C281.571 90.3754 282.339 91.1429 283.286 91.1429H286.714C287.661 91.1429 288.429 90.3754 288.429 89.4285C288.429 88.4817 287.661 87.7142 286.714 87.7142Z" fill="#F5F5FC"/>
<path d="M298.714 87.7142H295.286C294.339 87.7142 293.571 88.4817 293.571 89.4285C293.571 90.3754 294.339 91.1429 295.286 91.1429H298.714C299.661 91.1429 300.429 90.3754 300.429 89.4285C300.429 88.4817 299.661 87.7142 298.714 87.7142Z" fill="#F5F5FC"/>
<defs>
<filter id="filter0_d_1511_6" x="0" y="31" width="570" height="550" filterUnits="userSpaceOnUse" color-interpolation-filters="sRGB">
<feFlood flood-opacity="0" result="BackgroundImageFix"/>
<feColorMatrix in="SourceAlpha" type="matrix" values="0 0 0 0 0 0 0 0 0 0 0 0 0 0 0 0 0 0 127 0" result="hardAlpha"/>
<feOffset dy="10"/>
<feGaussianBlur stdDeviation="30"/>
<feColorMatrix type="matrix" values="0 0 0 0 0.149156 0 0 0 0 0.175824 0 0 0 0 0.4625 0 0 0 0.08 0"/>
<feBlend mode="normal" in2="BackgroundImageFix" result="effect1_dropShadow_1511_6"/>
<feBlend mode="normal" in="SourceGraphic" in2="effect1_dropShadow_1511_6" result="shape"/>
</filter>
<filter id="filter1_d_1511_6" x="195" y="0" width="180" height="180" filterUnits="userSpaceOnUse" color-interpolation-filters="sRGB">
<feFlood flood-opacity="0" result="BackgroundImageFix"/>
<feColorMatrix in="SourceAlpha" type="matrix" values="0 0 0 0 0 0 0 0 0 0 0 0 0 0 0 0 0 0 127 0" result="hardAlpha"/>
<feOffset dy="16"/>
<feGaussianBlur stdDeviation="20"/>
<feColorMatrix type="matrix" values="0 0 0 0 0.146118 0 0 0 0 0.172389 0 0 0 0 0.441667 0 0 0 0.1 0"/>
<feBlend mode="normal" in2="BackgroundImageFix" result="effect1_dropShadow_1511_6"/>
<feBlend mode="normal" in="SourceGraphic" in2="effect1_dropShadow_1511_6" result="shape"/>
</filter>
</defs>
</svg>
