<svg width="570" height="587" viewBox="0 0 570 587" fill="none" xmlns="http://www.w3.org/2000/svg">
<g filter="url(#filter0_d_1511_5)">
<rect x="60" y="87" width="450" height="430" rx="20" fill="white"/>
</g>
<g filter="url(#filter1_d_1511_5)">
<circle cx="285" cy="80" r="50" fill="#5B72EE"/>
</g>
<path d="M293.75 80H277.25V85.75H293.75V80ZM301.398 66.4336L292.985 57.6289C292.598 57.2246 292.074 57 291.524 57H291V68.5H302V67.952C302 67.3859 301.785 66.8379 301.398 66.4336ZM288.25 69.2188V57H271.062C269.92 57 269 57.9613 269 59.1562V100.844C269 102.039 269.92 103 271.062 103H299.938C301.08 103 302 102.039 302 100.844V71.375H290.312C289.178 71.375 288.25 70.4047 288.25 69.2188ZM274.5 63.4688C274.5 63.0716 274.808 62.75 275.188 62.75H282.062C282.442 62.75 282.75 63.0716 282.75 63.4688V64.9062C282.75 65.3034 282.442 65.625 282.062 65.625H275.188C274.808 65.625 274.5 65.3034 274.5 64.9062V63.4688ZM274.5 69.2188C274.5 68.8216 274.808 68.5 275.188 68.5H282.062C282.442 68.5 282.75 68.8216 282.75 69.2188V70.6562C282.75 71.0534 282.442 71.375 282.062 71.375H275.188C274.808 71.375 274.5 71.0534 274.5 70.6562V69.2188ZM296.5 96.5312C296.5 96.9284 296.192 97.25 295.812 97.25H288.938C288.558 97.25 288.25 96.9284 288.25 96.5312V95.0938C288.25 94.6966 288.558 94.375 288.938 94.375H295.812C296.192 94.375 296.5 94.6966 296.5 95.0938V96.5312ZM296.5 78.5625V87.1875C296.5 87.9817 295.885 88.625 295.125 88.625H275.875C275.115 88.625 274.5 87.9817 274.5 87.1875V78.5625C274.5 77.7683 275.115 77.125 275.875 77.125H295.125C295.885 77.125 296.5 77.7683 296.5 78.5625Z" fill="white"/>
<defs>
<filter id="filter0_d_1511_5" x="0" y="37" width="570" height="550" filterUnits="userSpaceOnUse" color-interpolation-filters="sRGB">
<feFlood flood-opacity="0" result="BackgroundImageFix"/>
<feColorMatrix in="SourceAlpha" type="matrix" values="0 0 0 0 0 0 0 0 0 0 0 0 0 0 0 0 0 0 127 0" result="hardAlpha"/>
<feOffset dy="10"/>
<feGaussianBlur stdDeviation="30"/>
<feColorMatrix type="matrix" values="0 0 0 0 0.149156 0 0 0 0 0.175824 0 0 0 0 0.4625 0 0 0 0.08 0"/>
<feBlend mode="normal" in2="BackgroundImageFix" result="effect1_dropShadow_1511_5"/>
<feBlend mode="normal" in="SourceGraphic" in2="effect1_dropShadow_1511_5" result="shape"/>
</filter>
<filter id="filter1_d_1511_5" x="195" y="0" width="180" height="180" filterUnits="userSpaceOnUse" color-interpolation-filters="sRGB">
<feFlood flood-opacity="0" result="BackgroundImageFix"/>
<feColorMatrix in="SourceAlpha" type="matrix" values="0 0 0 0 0 0 0 0 0 0 0 0 0 0 0 0 0 0 127 0" result="hardAlpha"/>
<feOffset dy="10"/>
<feGaussianBlur stdDeviation="20"/>
<feColorMatrix type="matrix" values="0 0 0 0 0.212 0 0 0 0 0.238778 0 0 0 0 0.533333 0 0 0 0.06 0"/>
<feBlend mode="normal" in2="BackgroundImageFix" result="effect1_dropShadow_1511_5"/>
<feBlend mode="normal" in="SourceGraphic" in2="effect1_dropShadow_1511_5" result="shape"/>
</filter>
</defs>
</svg>
